<?xml version="1.0" encoding="UTF-8" standalone="no"?>
<!-- Created with Inkscape (http://www.inkscape.org/) -->

<svg
   width="2048"
   height="2048"
   viewBox="0 0 541.86665 541.86666"
   version="1.1"
   id="svg1"
   xml:space="preserve"
   sodipodi:docname="artillery-logo-blue.svg"
   inkscape:version="1.4.2 (ebf0e940d0, 2025-05-08)"
   xmlns:inkscape="http://www.inkscape.org/namespaces/inkscape"
   xmlns:sodipodi="http://sodipodi.sourceforge.net/DTD/sodipodi-0.dtd"
   xmlns="http://www.w3.org/2000/svg"
   xmlns:svg="http://www.w3.org/2000/svg"><sodipodi:namedview
     id="namedview1"
     pagecolor="#505050"
     bordercolor="#eeeeee"
     borderopacity="1"
     inkscape:showpageshadow="0"
     inkscape:pageopacity="0"
     inkscape:pagecheckerboard="0"
     inkscape:deskcolor="#505050"
     inkscape:document-units="mm"
     inkscape:zoom="0.25612023"
     inkscape:cx="628.61102"
     inkscape:cy="1046.3836"
     inkscape:window-width="2560"
     inkscape:window-height="1364"
     inkscape:window-x="0"
     inkscape:window-y="0"
     inkscape:window-maximized="1"
     inkscape:current-layer="svg1"
     showgrid="false" /><defs
     id="defs1" /><path
     style="fill:#006cea;fill-opacity:1;stroke-width:1.5"
     d="m 206.58154,503.40677 c -0.1365,-0.1365 -2.62561,-1.30297 -5.53144,-2.59224 -2.90583,-1.28925 -5.64051,-2.50854 -6.07707,-2.70948 -0.43656,-0.20094 -3.74053,-1.65102 -7.34218,-3.22237 -3.60163,-1.57137 -7.62,-3.34638 -8.92968,-3.94452 -1.30969,-0.59812 -4.34578,-1.93956 -6.74687,-2.98098 -2.40108,-1.04142 -5.52648,-2.41965 -6.9453,-3.06274 -4.10578,-1.86095 -4.69822,-2.1219 -9.72345,-4.28276 -4.93751,-2.12318 -6.34759,-2.75087 -11.24069,-5.00386 -1.59846,-0.736 -2.98048,-1.33818 -3.07114,-1.33818 -0.0906,0 -4.22988,-1.80532 -9.19836,-4.01179 -11.66349,-5.17978 -12.2143,-5.4252 -14.69848,-6.54879 -1.15119,-0.52069 -3.1561,-1.39413 -4.45536,-1.94097 -1.29924,-0.54685 -3.30415,-1.42212 -4.45536,-1.94505 -1.15119,-0.52294 -3.20501,-1.41591 -4.56404,-1.98438 -1.35905,-0.56848 -3.50217,-1.5037 -4.7625,-2.07826 -1.26035,-0.57456 -3.36309,-1.53375 -4.67277,-2.13156 -1.30969,-0.59781 -4.97086,-2.1984 -8.13594,-3.55686 -10.08313,-4.32774 -15.06683,-6.94454 -18.55066,-9.74045 -8.500796,-6.8222 -13.706332,-15.51532 -15.800739,-26.38685 -0.863784,-4.48367 -0.863784,-281.66301 0,-286.14667 2.273973,-11.80363 8.905889,-22.01409 18.396839,-28.323647 2.91849,-1.94021 8.34619,-4.59251 15.55771,-7.6024 1.41882,-0.5922 3.91914,-1.70307 5.55624,-2.46863 1.6371,-0.76555 4.76248,-2.15542 6.94529,-3.0886 2.18282,-0.93318 5.04032,-2.17622 6.35,-2.76231 3.76966,-1.6869 4.62397,-2.06802 6.94531,-3.09838 1.20055,-0.53288 2.98648,-1.32888 3.96876,-1.76891 0.98226,-0.44001 3.12538,-1.37779 4.76249,-2.08398 3.39068,-1.46257 5.44997,-2.37975 9.12812,-4.0656 1.41883,-0.65031 2.97862,-1.33551 3.46619,-1.52267 0.48758,-0.18715 5.39891,-2.32648 10.91406,-4.75406 12.91886,-5.686439 12.06172,-5.307689 14.59162,-6.447869 1.20054,-0.541063 5.3082,-2.353557 9.12809,-4.027767 3.81995,-1.674224 8.06957,-3.568663 9.44361,-4.20989 1.37404,-0.641226 2.57509,-1.165864 2.66896,-1.165864 0.0939,0 1.38066,-0.551402 2.85953,-1.225339 1.47886,-0.673938 3.22462,-1.466152 3.87946,-1.760476 1.40367,-0.630892 20.01271,-8.876624 20.73671,-9.188515 0.39332,-0.169432 0.4952,4.091437 0.49179,20.565458 -0.005,22.468102 -0.0165,22.610392 -2.1913,26.321432 -1.20287,2.05253 -4.51521,5.17367 -6.30711,5.943 -1.1259,0.48341 -3.49345,1.55741 -8.87142,4.02429 -1.15194,0.5284 -2.1658,0.96073 -2.25304,0.96073 -0.0873,0 -1.46644,0.6009 -3.06493,1.33535 -1.59848,0.7344 -5.49593,2.45598 -8.661,3.825717 -3.16507,1.36971 -6.91555,3.01374 -8.33437,3.65335 -1.41882,0.63964 -3.82984,1.71 -5.3578,2.37859 -1.52798,0.66858 -3.7604,1.65789 -4.96094,2.19846 -1.20057,0.54057 -5.2189,2.31257 -8.9297,3.93779 -3.71076,1.62522 -7.68934,3.39161 -8.8413,3.92534 -1.15194,0.53372 -2.1664,0.9704 -2.25433,0.9704 -0.0879,0 -1.28859,0.52036 -2.66807,1.15636 -1.37947,0.636 -6.43721,2.88576 -11.23939,4.99947 -4.80219,2.11373 -9.71351,4.29139 -10.91407,4.83927 -1.20054,0.54789 -2.98648,1.31947 -3.96874,1.71463 -7.02159,2.82476 -9.89817,4.8737 -11.5734,8.24352 l -0.92817,1.86705 v 129.77802 129.77804 l 1.06058,2.00957 c 0.58332,1.10526 1.7799,2.65942 2.65906,3.4537 1.71671,1.55094 1.71879,1.55198 11.56005,5.85303 3.60165,1.57407 7.4414,3.26454 8.53282,3.7566 4.33279,1.95343 5.78631,2.59591 11.70778,5.17502 3.38338,1.47365 7.22314,3.16788 8.53282,3.76499 1.30968,0.59712 4.52436,2.01789 7.14373,3.15727 2.61939,1.13939 5.48025,2.39837 6.35746,2.79773 0.87725,0.39937 4.53504,2.00497 8.12849,3.56801 3.59344,1.56303 7.34053,3.20855 8.3269,3.6567 0.98637,0.44814 2.77566,1.25079 3.97621,1.78367 1.20054,0.53287 2.71858,1.2103 3.37344,1.5054 0.65484,0.29508 3.42304,1.51144 6.15156,2.70303 2.72851,1.19158 5.94319,2.62015 7.14374,3.17458 1.20054,0.55444 3.52226,1.58317 5.15937,2.28607 3.90283,1.67568 5.40648,2.65689 7.41321,4.8375 1.84051,2.00001 3.00216,4.05472 3.64768,6.45199 0.52179,1.93778 0.66146,42.78471 0.14685,42.95625 -0.18883,0.063 -0.45498,0.003 -0.59145,-0.13365 z m 127.9822,-21.10042 0.1092,-21.33201 1.26403,-2.66832 c 0.69522,-1.46757 2.06961,-3.52956 3.05421,-4.58215 1.71972,-1.83854 2.85082,-2.54279 7.19112,-4.4774 1.0914,-0.48646 3.47529,-1.57393 5.29752,-2.41659 1.82224,-0.84265 3.39473,-1.5321 3.49442,-1.5321 0.18488,0 1.94459,-0.77358 6.41621,-2.82056 1.37949,-0.6315 2.57195,-1.14818 2.64992,-1.14818 0.078,0 1.4496,-0.60154 3.04809,-1.33677 1.59848,-0.73521 4.24578,-1.90798 5.88288,-2.60613 1.6371,-0.69816 4.28082,-1.88256 5.87493,-2.63199 1.59411,-0.74944 2.98801,-1.36261 3.09756,-1.36261 0.1095,0 0.94842,-0.33924 1.86414,-0.75389 2.44939,-1.10908 7.71655,-3.44237 17.53991,-7.76996 4.8022,-2.11556 9.67375,-4.27783 10.82569,-4.80505 1.15197,-0.52722 2.16582,-0.95858 2.25306,-0.95858 0.0872,0 1.46644,-0.6022 3.06492,-1.33821 4.45287,-2.05027 6.25978,-2.85378 8.94919,-3.97954 1.35903,-0.56889 3.50215,-1.49367 4.7625,-2.05509 1.26033,-0.56142 2.91658,-1.29821 3.68057,-1.63727 4.9629,-2.20259 6.48476,-3.12784 8.10032,-4.92473 3.31739,-3.68975 3.01217,9.92411 3.01217,-134.3537 V 142.11526 l -0.82057,-2.19318 c -1.40491,-3.75496 -3.19092,-5.12944 -11.31586,-8.7085 -3.91159,-1.72308 -8.00496,-3.53272 -9.09637,-4.02145 -2.1263,-0.95213 -18.26726,-8.08659 -21.23281,-9.38511 -0.98226,-0.4301 -2.33185,-1.02899 -2.99907,-1.33086 -0.66724,-0.30188 -2.63176,-1.158 -4.36564,-1.90252 -1.73385,-0.74453 -3.95614,-1.71894 -4.9384,-2.16537 -0.98226,-0.44645 -3.30398,-1.47822 -5.15938,-2.29284 -1.85538,-0.81464 -4.68126,-2.08064 -6.27975,-2.81334 -1.59849,-0.73271 -2.97729,-1.3322 -3.06402,-1.3322 -0.1389,0 -1.25884,-0.48592 -5.93589,-2.57555 -0.65485,-0.29261 -2.1729,-0.96786 -3.37344,-1.5006 -1.20055,-0.53277 -2.98648,-1.33779 -3.96875,-1.78895 -0.98226,-0.451147 -3.12539,-1.394197 -4.7625,-2.095627 -1.6371,-0.70145 -4.13742,-1.80615 -5.55624,-2.45493 -1.41883,-0.64878 -3.42471,-1.51355 -4.45752,-1.92173 -7.9068,-3.12481 -11.55995,-6.31997 -13.42553,-11.74237 -0.72336,-2.10247 -0.77007,-3.48214 -0.77007,-22.747442 0,-11.280064 0.10275,-20.611973 0.22836,-20.737574 0.19089,-0.190866 2.31292,0.663442 7.11382,2.863917 0.43656,0.200099 1.68672,0.753647 2.77812,1.230106 1.09141,0.47646 3.29223,1.468477 4.8907,2.20448 1.59849,0.736005 2.97729,1.33819 3.06402,1.33819 0.0867,0 1.1899,0.472257 2.45149,1.049458 1.26158,0.577202 3.63324,1.626348 5.27036,2.331434 1.6371,0.705089 3.95881,1.737567 5.15936,2.294396 1.20054,0.556826 3.52227,1.585045 5.15937,2.28493 1.63712,0.69987 4.28439,1.874039 5.88289,2.609264 1.59848,0.735225 2.9777,1.336753 3.06494,1.336753 0.0873,0 1.1011,0.431416 2.25304,0.958679 4.11095,1.881675 20.1755,8.963209 20.33314,8.963209 0.14625,0 3.06421,1.28707 7.16128,3.1587 4.04082,1.84595 6.29359,2.84972 10.71561,4.77461 6.08879,2.6504 9.5261,4.16384 13.09687,5.76645 0.65484,0.29392 5.92336,2.61243 11.70781,5.15226 5.78444,2.53983 11.32085,4.98021 12.30311,5.42307 0.98226,0.44286 2.32173,1.04273 2.97657,1.33309 9.66685,4.28626 13.11512,6.39483 17.79583,10.881747 6.29566,6.035 10.16399,13.09146 12.19607,22.24752 0.72585,3.27045 0.74897,7.67098 0.75729,144.13879 0.007,124.46647 -0.0614,141.10152 -0.59499,143.66867 -1.96543,9.454 -6.33685,17.39152 -12.95,23.51429 -4.4141,4.08676 -8.02761,6.27772 -16.41046,9.95 -2.33477,1.02279 -9.53878,4.20321 -10.31874,4.5555 -0.43656,0.19719 -1.77601,0.79137 -2.97657,1.32039 -1.20054,0.52902 -2.98648,1.32333 -3.96874,1.76511 -0.98226,0.44178 -4.91133,2.17123 -8.73124,3.84324 -3.81993,1.67199 -7.30251,3.19984 -7.73907,3.39522 -0.43656,0.19537 -1.59742,0.70489 -2.57968,1.13226 -0.98226,0.42736 -7.50091,3.31327 -14.48593,6.41317 -6.98499,3.0999 -13.50365,5.98756 -14.48593,6.41706 -0.98226,0.42952 -2.32171,1.02102 -2.97655,1.31448 -0.65484,0.29344 -3.51234,1.54384 -6.34999,2.77859 -5.38125,2.34161 -5.82671,2.53881 -10.24722,4.53585 -1.48863,0.67251 -2.77038,1.22276 -2.84835,1.22276 -0.078,0 -1.44961,0.60154 -3.0481,1.33675 -1.59848,0.73523 -4.24578,1.92039 -5.88288,2.63367 -1.63711,0.71329 -4.13742,1.82401 -5.55625,2.46828 -3.46649,1.57401 -3.73473,1.69233 -13.29531,5.86404 -4.58391,2.00016 -8.85293,3.89005 -9.48674,4.19975 -0.63381,0.30972 -1.21872,0.56312 -1.29984,0.56312 -0.0811,0 -0.0983,-9.59941 -0.0383,-21.33202 z M 161.22908,395.21119 c -0.11805,-0.3078 -0.16428,-10.46152 -0.1026,-22.56385 0.10905,-21.38164 0.13575,-22.05472 0.94368,-23.79012 1.45134,-3.11718 2.77234,-3.99753 12.39145,-8.25798 4.9511,-2.19291 13.28827,-5.89084 18.52701,-8.21764 5.23875,-2.32679 10.03249,-4.70621 10.65276,-5.28759 0.62026,-0.5814 1.49824,-1.77147 1.95108,-2.64457 0.82225,-1.5854 0.82321,-1.65545 0.72582,-52.72477 -0.10695,-56.09885 0.027,-53.102 -2.4887,-55.69745 -1.08717,-1.12167 -3.27016,-2.22938 -12.03158,-6.10509 -0.87312,-0.38623 -3.10554,-1.35574 -4.96093,-2.15445 -1.8554,-0.79872 -3.90921,-1.69243 -4.56407,-1.98603 -4.10376,-1.83997 -6.05557,-2.6923 -8.24462,-3.60033 -5.51925,-2.28934 -9.71946,-4.48748 -10.52044,-5.50574 -0.46632,-0.59283 -1.21232,-2.05202 -1.65779,-3.24264 -0.77887,-2.08176 -0.80994,-2.99262 -0.80994,-23.75612 0,-12.49584 0.15168,-21.6851 0.36011,-21.81392 0.30721,-0.18987 3.23992,0.93832 8.15017,3.1353 1.05123,0.47036 5.30058,2.32972 9.15064,4.00402 0.65485,0.28477 2.22283,0.97758 3.48442,1.53958 1.26159,0.56199 2.36534,1.02182 2.45277,1.02182 0.0875,0 1.37696,0.55044 2.86559,1.22322 5.9012,2.66706 7.56121,3.40182 12.03316,5.32625 1.85537,0.79847 3.9092,1.69196 4.56406,1.98557 4.00842,1.79721 6.0532,2.69229 8.24461,3.60894 2.2966,0.96066 3.3363,1.42122 8.30313,3.67806 1.02486,0.46567 1.95799,0.84669 2.07366,0.84669 0.11565,0 1.33093,0.51212 2.70067,1.13806 1.36972,0.62593 3.38338,1.52865 4.47478,2.00604 1.09142,0.47739 2.34156,1.03179 2.77812,1.23201 0.43658,0.20019 2.46946,1.08036 4.51753,1.95588 2.0481,0.87552 4.46163,2.02423 5.36339,2.5527 2.29789,1.34665 5.60935,4.96912 6.62785,7.25032 0.47217,1.05753 1.0585,2.27997 1.30299,2.71653 0.55491,0.99096 0.92841,41.15279 0.99339,106.81672 0.0451,45.64782 0.0256,46.95582 -0.73785,49.42774 -0.96564,3.12639 -2.65383,5.73118 -5.15547,7.95466 -2.39412,2.12792 -3.22225,2.55366 -14.69777,7.55605 -5.13257,2.23739 -6.9003,3.02924 -11.836,5.30184 -1.59848,0.73601 -2.97012,1.33818 -3.04809,1.33818 -0.15615,0 -3.96171,1.71618 -8.44744,3.80955 -1.59087,0.74241 -2.97384,1.34983 -3.07329,1.34983 -0.15653,0 -3.23009,1.35495 -10.10766,4.45589 -0.98226,0.44287 -3.09378,1.40742 -4.69225,2.14342 -1.59849,0.73599 -2.97012,1.33818 -3.04809,1.33818 -0.078,0 -1.27044,0.52064 -2.64993,1.15695 -1.37949,0.63633 -4.74058,2.13969 -7.4691,3.34078 -2.72849,1.2011 -7.01476,3.10499 -9.52499,4.23083 -2.51022,1.12584 -4.78578,2.14131 -5.05678,2.25661 -0.27102,0.11535 -0.5894,-0.0422 -0.70752,-0.34993 z m 216.49069,-0.64457 c -2.22261,-1.0734 -4.50885,-2.10718 -8.12185,-3.67255 -2.23661,-0.96903 -3.40875,-1.48841 -9.32655,-4.13255 -2.29195,-1.02408 -5.29587,-2.38126 -6.67536,-3.01594 -1.37947,-0.63469 -2.57194,-1.15399 -2.64991,-1.15399 -0.078,0 -1.44961,-0.60272 -3.04809,-1.33935 -1.59847,-0.73665 -6.03172,-2.71842 -9.85163,-4.40396 -3.8199,-1.68552 -7.74899,-3.42835 -8.73125,-3.87295 -0.98227,-0.44463 -2.7682,-1.24437 -3.96875,-1.77724 -1.20054,-0.53288 -2.71859,-1.20801 -3.37343,-1.50029 -0.65485,-0.29229 -2.26219,-1.00351 -3.57187,-1.5805 -1.30968,-0.57699 -2.73844,-1.21157 -3.175,-1.41014 -0.43656,-0.19858 -4.00842,-1.80663 -7.93751,-3.57345 -8.8835,-3.9947 -9.98405,-4.63721 -12.23918,-7.14548 -2.16423,-2.40713 -3.59013,-5.2737 -4.23811,-8.52007 -0.36644,-1.83582 -0.39666,-19.65268 -0.132,-77.78745 l 0.34338,-75.4062 1.61553,-3.37342 c 2.21953,-4.63465 4.99267,-7.18762 10.33823,-9.51733 4.54378,-1.9803 6.08976,-2.66526 9.79681,-4.34069 1.48865,-0.67278 2.77815,-1.22323 2.86557,-1.22323 0.14595,0 1.78705,-0.71519 6.53251,-2.8468 2.73203,-1.22721 3.88331,-1.73193 7.54062,-3.30582 1.85541,-0.79845 3.90922,-1.69194 4.56406,-1.98555 4.25975,-1.90989 5.79743,-2.57745 5.9372,-2.57745 0.0874,0 1.37695,-0.55025 2.86558,-1.22274 4.5672,-2.06332 4.98799,-2.24931 8.26284,-3.65182 4.82798,-2.06765 18.49176,-8.0384 20.68238,-9.03772 3.75772,-1.71417 8.16551,-3.5502 8.52307,-3.5502 0.2133,0 0.36172,8.92684 0.36172,21.75608 0,24.87413 0.0211,24.67796 -2.99239,27.69155 -0.96207,0.96207 -1.91946,1.7492 -2.12757,1.7492 -0.20808,0 -1.68618,0.60078 -3.28464,1.33506 -1.59847,0.73428 -6.92469,3.06858 -11.83601,5.18735 -4.91133,2.11876 -9.73335,4.21425 -10.71562,4.65664 -1.98657,0.89472 -2.91764,1.31068 -6.91791,3.09054 -4.48539,1.9957 -6.3448,3.87576 -7.08297,7.16166 -0.12255,0.5457 -0.27691,23.85218 -0.34294,51.79214 l -0.12,50.79998 0.87042,1.64832 c 0.79252,1.50081 3.42588,4.10634 4.15018,4.10634 0.16375,0 1.68576,0.63792 3.38223,1.41759 3.73158,1.71496 3.9838,1.82847 11.22041,5.04916 3.16508,1.40864 6.73695,3.00594 7.93751,3.54957 1.20053,0.54363 4.77094,2.12887 7.93421,3.52278 6.22371,2.74245 8.28765,4.31973 9.21111,7.0392 0.73203,2.15573 0.95202,46.50628 0.23046,46.46312 -0.27974,-0.0168 -1.49721,-0.50788 -2.70552,-1.0914 z"
     id="path1"
     sodipodi:nodetypes="ssssssssssssssssssssssssscssssssssssssscssssssssssssssssscccssssssssssssssssssssccssssssssssssssssssssscssssssssssssssssssssssssssssssssssssssscsssssssssssssssssssssscscssssscssscssssssssssssssssssssssssssssssssssssssssssssssssssssssccssssssssssssssssssssscssssssssss" /></svg>
